<?xml version="1.0" encoding="UTF-8"?>
<svg
  width="64"
  height="64"
  viewBox="0 0 64 64"
  fill="none"
  xmlns="http://www.w3.org/2000/svg">

  <!-- Shield -->
  <path
    d="M12 10
       L32 4
       L52 10
       V34
       C52 44 40 54 32 58
       C24 54 12 44 12 34
       Z"
    fill="#0E2A36"
    stroke="#4FC3D8"
    stroke-width="2"/>

  <!-- Inner V shape -->
  <path
    d="M18 18 L32 30 L46 18 V26 L32 38 L18 26 Z"
    fill="#1F6F82"
    opacity="0.6"/>

  <!-- Chess King -->
  <path
    d="M30 20 H34 V24 H30 Z
       M28 26 H36
       C36 26 37 28 36 30
       H28
       C27 28 28 26 28 26 Z
       M29 30 H35 V40
       C35 42 29 42 29 40 Z
       M26 42 H38 V46 H26 Z"
    fill="#E6F7FB"/>

</svg>
